PathFileType	4	(X/Y/Z)	Patient4_TMGait_0pt5_02_right_17.trc.trc
DataRate	CameraRate	NumFrames	NumMarkers	Units	OrigDataRate	OrigDataStartFrame	OrigNumFrames
81.395348837209	81.395348837209	4	33	mm	81.395348837209	1	       141
Frame#	Time	Sacral			L.Shoulder			Chest			R.Shoulder			Neck			R.ASIS			L.ASIS			R.Thigh.Superior			R.Thigh.Lateral			R.Thigh.Inferior			R.Patella			L.Thigh.Superior			L.Thigh.Lateral			L.Thigh.Inferior			L.Patella			L.Shank.Superior			L.Shank.Lateral			L.Shank.Inferior			R.Shank.Superior			R.Shank.Lateral			R.Shank.Inferior			R.Heel			R.Midfoot.Superior			R.Midfoot.Lateral			R.Toe			L.Heel			L.Midfoot.Lateral			L.Midfoot.Superior			L.Toe			L.Elbow			L.Wrist			R.Elbow			R.Wrist			
		X1	Y1	Z1	X2	Y2	Z2	X3	Y3	Z3	X4	Y4	Z4	X5	Y5	Z5	X6	Y6	Z6	X7	Y7	Z7	X8	Y8	Z8	X9	Y9	Z9	X10	Y10	Z10	X11	Y11	Z11	X12	Y12	Z12	X13	Y13	Z13	X14	Y14	Z14	X15	Y15	Z15	X16	Y16	Z16	X17	Y17	Z17	X18	Y18	Z18	X19	Y19	Z19	X20	Y20	Z20	X21	Y21	Z21	X22	Y22	Z22	X23	Y23	Z23	X24	Y24	Z24	X25	Y25	Z25	X26	Y26	Z26	X27	Y27	Z27	X28	Y28	Z28	X29	Y29	Z29	X30	Y30	Z30	X31	Y31	Z31	X32	Y32	Z32	X33	Y33	Z33	

1	22.170000000000	622.881365606778	1020.601314746811	448.448720974562	829.159662436112	1425.254048671476	250.544637814738	915.235108093435	1367.828348847381	426.146038050360	817.085423725201	1457.326077080673	585.783906178616	815.035023321124	1499.259805405868	395.154730120263	838.639843716496	952.801370933398	582.766312939867	850.509965138387	963.006319816734	308.177927284984	917.031980497807	776.075882742003	563.627042927132	865.962772339106	658.229422668499	635.925486543970	961.271170117353	614.284936531661	566.292512049470	973.631848986474	500.736612302727	590.744940264477	879.769487971497	749.366354941783	335.784462141650	785.133125044848	640.150520422607	277.708427433646	864.599061713961	558.553743225937	342.235542734165	860.390192626739	490.852267350684	352.462269347375	836.255043785038	420.998692209758	344.766604194630	748.672198905589	304.215008803698	296.133292389068	803.652989021162	195.806198719003	369.724817881561	896.310504039547	427.727009580678	588.419906045346	768.584129715933	388.908108033618	632.885274299775	759.366168809349	280.998634629653	583.160120602881	561.808787507399	212.903414562691	526.541742388421	725.469372328113	172.280261529828	600.891490140591	611.410654867803	169.950583939211	616.467860352228	788.578464650356	68.593737272566	654.571975844749	677.442743339943	38.205955854356	414.804561164394	753.018220413720	35.045097874806	335.391344817796	835.470314796967	96.353545543060	361.971734070321	964.167371249839	45.836798395077	337.374997707991	866.821168206434	1070.073100099300	142.012703242508	1057.925896328057	890.950247755983	144.085965624230	731.348108182209	1126.980164703014	716.897586157537	812.792432341759	877.353276998511	729.506675119076	
2	22.182285714286	622.180569469853	1020.660251402740	447.490022022686	830.506408948326	1425.459011109983	250.842242511485	915.410675516982	1367.459737117156	426.764264950320	816.833045369272	1456.898075804816	586.204965399040	815.591592613874	1499.205988272572	395.547814591016	837.428178761689	953.016223608582	582.460021268302	850.017132859496	962.650099885878	308.033466280602	917.117307537460	777.747842647822	563.422407707674	867.453348886204	659.581044856261	635.888495878116	962.912936102893	616.547527732096	565.914665493260	977.316428279039	504.022674915632	590.510086287510	877.729597046556	748.363050170751	336.648125850575	782.653525770934	639.913981187095	277.532340178150	860.569056116852	557.726064363662	342.889906336662	855.655935937426	490.183474969691	353.064975857855	831.437233472283	420.560629777695	345.192333376910	743.735922351166	304.069355010978	296.013423580768	797.710497329035	195.515009973028	370.047448171697	902.242250052997	429.276884910360	588.926521185260	776.474738419358	385.973803939607	634.302545461376	770.912730877868	277.698977946467	584.956035446281	575.988418133529	202.558802080304	530.033982556349	741.266562672092	167.695620392812	603.182253927828	627.620896051153	161.550869364866	619.731406106193	808.096283187448	66.317000660793	656.330111726908	670.888437432152	38.109043455633	414.840350173922	746.449020163160	35.028440298835	335.397494912770	828.907566697378	96.275999795455	362.113376249447	957.619981454494	45.789266133720	337.404561875075	870.825748667591	1071.047131752538	141.736720562824	1069.287743751003	901.580459521291	146.658677148135	724.368014227002	1128.033567583486	715.466420532432	789.251836697164	876.094295543971	734.205785532801	
3	22.194571428571	621.484302390905	1020.709872693893	446.547233848824	831.863921574997	1425.644678169178	251.172759771536	915.603126633617	1367.067996658150	427.408093266294	816.580174636286	1456.449356597346	586.628687262622	816.168728481248	1499.131779500374	395.968383289801	836.211762195907	953.205615344285	582.175833676300	849.500477775804	962.271701835530	307.913349841654	917.145389242641	779.352470764437	563.196951673310	868.843305999163	660.868844571937	635.831938160317	964.405812528300	618.706253393757	565.503849177292	980.804084995339	507.229080819004	590.256922513979	875.713991505538	747.374400300097	337.517306926438	780.243199180428	639.663864727543	277.368542332616	856.650944528937	556.908107028185	343.543982020976	851.047633718590	489.509365103780	353.662802740443	826.730097340263	420.108040667158	345.617789021790	738.893826043049	303.921681005564	295.897793841876	791.852316217414	195.215521275185	370.363132788409	908.035264406159	430.745644270495	589.404171074971	784.304040875984	382.917167348990	635.720678289182	782.441647535476	274.301496737802	586.739162887038	590.233830038799	192.023781189295	533.547132337273	757.098189781344	163.050268525749	605.442399500652	643.921940737174	153.027236596906	623.000491591410	827.707042357426	64.072952336297	658.054922377317	664.401107272896	38.015397692248	414.873113987376	739.946932657303	35.010580891088	335.404709718386	822.410909051539	96.196286696463	362.255425974451	951.141145575907	45.735926872204	337.436517245111	874.737964100467	1071.989381229031	141.491878029862	1080.364571520049	912.143710854560	149.262491018587	717.481859881316	1129.120205769664	714.129086184843	766.202783050229	875.109648620588	738.818638913649	
4	22.206857142857	620.800613670348	1020.744469159140	445.635927101032	833.259579435687	1425.790803936883	251.580612850042	915.838397664949	1366.624948644749	428.117492578295	816.337537632120	1455.956346064977	587.071094096297	816.798119041298	1499.015926348883	396.456255248606	834.982652630313	953.338626696571	581.947221993951	848.959520438585	961.853659146826	307.847414319945	917.029689612557	780.794237389508	562.954181691397	869.978779522830	662.013564908322	635.751797493325	965.557475026058	620.634622150836	565.048278874549	983.860044515072	510.274126520628	589.974887777512	873.751517867261	746.408386400319	338.393787519152	777.955053277768	639.386033932403	277.234611503547	852.934071164329	556.101132487036	344.198994975263	846.666854259038	488.819720471912	354.255132273316	822.216589839154	419.624119731518	346.046831549650	734.208418436813	303.771480172616	295.793907941021	786.123547959065	194.898463423535	370.668486545614	913.540912510830	432.069733808822	589.834928967551	792.049147927404	379.622907266143	637.142897012818	794.012060643524	270.753256536752	588.499363470061	604.782235024948	181.145833452786	537.080480860590	773.131711901674	158.340445616708	607.645853237441	660.564036693105	144.292245375338	626.256995656375	847.625784890157	61.979113445328	659.702033200971	658.005490243254	37.931077229207	414.901014283319	733.537605728520	34.991545320261	335.414002464787	816.007079154615	96.112509935048	362.398394771258	944.758134665243	45.669779642384	337.472623393293	878.476348969135	1072.866929719505	141.320082533920	1090.879570719351	922.566918654719	151.957640401962	710.759379502065	1130.286894405412	712.981795604888	744.105024709757	874.642722840013	743.257801984171	
